<mxfile host="app.diagrams.net" modified="2023-11-07T15:11:09.552Z" agent="Mozilla/5.0 (Windows NT 10.0; Win64; x64) AppleWebKit/537.36 (KHTML, like Gecko) Chrome/119.0.0.0 Safari/537.36 Edg/119.0.0.0" etag="Q_knOrZwFNn_6_V6mEmh" version="22.0.8" type="device">
  <diagram name="Page-1" id="VwZCegSTvDKiSecJ2Ps-">
    <mxGraphModel dx="1581" dy="681" grid="1" gridSize="10" guides="1" tooltips="1" connect="1" arrows="1" fold="1" page="1" pageScale="1" pageWidth="827" pageHeight="1169" math="0" shadow="0">
      <root>
        <mxCell id="0" />
        <mxCell id="1" parent="0" />
        <mxCell id="h1zkkJwXVKAa2Il2JU1P-9" value="" style="shape=table;html=1;whiteSpace=wrap;startSize=0;container=1;collapsible=0;childLayout=tableLayout;" parent="1" vertex="1">
          <mxGeometry x="-800" y="40" width="320" height="102" as="geometry" />
        </mxCell>
        <mxCell id="h1zkkJwXVKAa2Il2JU1P-10" value="" style="shape=partialRectangle;html=1;whiteSpace=wrap;collapsible=0;dropTarget=0;pointerEvents=0;fillColor=none;top=0;left=0;bottom=0;right=0;points=[[0,0.5],[1,0.5]];portConstraint=eastwest;" parent="h1zkkJwXVKAa2Il2JU1P-9" vertex="1">
          <mxGeometry width="320" height="28" as="geometry" />
        </mxCell>
        <mxCell id="h1zkkJwXVKAa2Il2JU1P-11" value="Projet" style="shape=partialRectangle;html=1;whiteSpace=wrap;connectable=0;overflow=hidden;fillColor=none;top=0;left=0;bottom=0;right=0;" parent="h1zkkJwXVKAa2Il2JU1P-10" vertex="1">
          <mxGeometry width="100" height="28" as="geometry">
            <mxRectangle width="100" height="28" as="alternateBounds" />
          </mxGeometry>
        </mxCell>
        <mxCell id="h1zkkJwXVKAa2Il2JU1P-12" value="PROJET_DBPY" style="shape=partialRectangle;html=1;whiteSpace=wrap;connectable=0;overflow=hidden;fillColor=none;top=0;left=0;bottom=0;right=0;" parent="h1zkkJwXVKAa2Il2JU1P-10" vertex="1">
          <mxGeometry x="100" width="220" height="28" as="geometry">
            <mxRectangle width="220" height="28" as="alternateBounds" />
          </mxGeometry>
        </mxCell>
        <mxCell id="h1zkkJwXVKAa2Il2JU1P-13" value="" style="shape=partialRectangle;html=1;whiteSpace=wrap;collapsible=0;dropTarget=0;pointerEvents=0;fillColor=none;top=0;left=0;bottom=0;right=0;points=[[0,0.5],[1,0.5]];portConstraint=eastwest;" parent="h1zkkJwXVKAa2Il2JU1P-9" vertex="1">
          <mxGeometry y="28" width="320" height="27" as="geometry" />
        </mxCell>
        <mxCell id="h1zkkJwXVKAa2Il2JU1P-14" value="Titre" style="shape=partialRectangle;html=1;whiteSpace=wrap;connectable=0;overflow=hidden;fillColor=none;top=0;left=0;bottom=0;right=0;" parent="h1zkkJwXVKAa2Il2JU1P-13" vertex="1">
          <mxGeometry width="100" height="27" as="geometry">
            <mxRectangle width="100" height="27" as="alternateBounds" />
          </mxGeometry>
        </mxCell>
        <mxCell id="h1zkkJwXVKAa2Il2JU1P-15" value="MCD_jeu" style="shape=partialRectangle;html=1;whiteSpace=wrap;connectable=0;overflow=hidden;fillColor=none;top=0;left=0;bottom=0;right=0;" parent="h1zkkJwXVKAa2Il2JU1P-13" vertex="1">
          <mxGeometry x="100" width="220" height="27" as="geometry">
            <mxRectangle width="220" height="27" as="alternateBounds" />
          </mxGeometry>
        </mxCell>
        <mxCell id="h1zkkJwXVKAa2Il2JU1P-16" value="" style="shape=partialRectangle;html=1;whiteSpace=wrap;collapsible=0;dropTarget=0;pointerEvents=0;fillColor=none;top=0;left=0;bottom=0;right=0;points=[[0,0.5],[1,0.5]];portConstraint=eastwest;" parent="h1zkkJwXVKAa2Il2JU1P-9" vertex="1">
          <mxGeometry y="55" width="320" height="20" as="geometry" />
        </mxCell>
        <mxCell id="h1zkkJwXVKAa2Il2JU1P-17" value="Auteur" style="shape=partialRectangle;html=1;whiteSpace=wrap;connectable=0;overflow=hidden;fillColor=none;top=0;left=0;bottom=0;right=0;" parent="h1zkkJwXVKAa2Il2JU1P-16" vertex="1">
          <mxGeometry width="100" height="20" as="geometry">
            <mxRectangle width="100" height="20" as="alternateBounds" />
          </mxGeometry>
        </mxCell>
        <mxCell id="h1zkkJwXVKAa2Il2JU1P-18" value="Zachary Smith&amp;nbsp;" style="shape=partialRectangle;html=1;whiteSpace=wrap;connectable=0;overflow=hidden;fillColor=none;top=0;left=0;bottom=0;right=0;" parent="h1zkkJwXVKAa2Il2JU1P-16" vertex="1">
          <mxGeometry x="100" width="220" height="20" as="geometry">
            <mxRectangle width="220" height="20" as="alternateBounds" />
          </mxGeometry>
        </mxCell>
        <mxCell id="h1zkkJwXVKAa2Il2JU1P-19" value="" style="shape=partialRectangle;html=1;whiteSpace=wrap;collapsible=0;dropTarget=0;pointerEvents=0;fillColor=none;top=0;left=0;bottom=0;right=0;points=[[0,0.5],[1,0.5]];portConstraint=eastwest;" parent="h1zkkJwXVKAa2Il2JU1P-9" vertex="1">
          <mxGeometry y="75" width="320" height="27" as="geometry" />
        </mxCell>
        <mxCell id="h1zkkJwXVKAa2Il2JU1P-20" value="Version" style="shape=partialRectangle;html=1;whiteSpace=wrap;connectable=0;overflow=hidden;fillColor=none;top=0;left=0;bottom=0;right=0;" parent="h1zkkJwXVKAa2Il2JU1P-19" vertex="1">
          <mxGeometry width="100" height="27" as="geometry">
            <mxRectangle width="100" height="27" as="alternateBounds" />
          </mxGeometry>
        </mxCell>
        <mxCell id="h1zkkJwXVKAa2Il2JU1P-21" value="1" style="shape=partialRectangle;html=1;whiteSpace=wrap;connectable=0;overflow=hidden;fillColor=none;top=0;left=0;bottom=0;right=0;" parent="h1zkkJwXVKAa2Il2JU1P-19" vertex="1">
          <mxGeometry x="100" width="220" height="27" as="geometry">
            <mxRectangle width="220" height="27" as="alternateBounds" />
          </mxGeometry>
        </mxCell>
        <mxCell id="QfKloYm33SwB33vJ2Fxd-15" value="&lt;div style=&quot;box-sizing: border-box ; width: 100% ; padding: 2px&quot;&gt;&lt;br&gt;&lt;/div&gt;" style="verticalAlign=top;align=center;overflow=fill;html=1;rounded=0;shadow=0;comic=0;labelBackgroundColor=none;strokeColor=#000000;strokeWidth=1;fillColor=#ffffff;fontFamily=Verdana;fontSize=12;fontColor=#000000;" vertex="1" parent="1">
          <mxGeometry x="-800" y="200" width="200" height="110" as="geometry" />
        </mxCell>
        <mxCell id="QfKloYm33SwB33vJ2Fxd-16" value="jeu" style="rounded=0;whiteSpace=wrap;html=1;" vertex="1" parent="1">
          <mxGeometry x="-800" y="200" width="200" height="20" as="geometry" />
        </mxCell>
        <mxCell id="QfKloYm33SwB33vJ2Fxd-17" value="nom" style="text;html=1;strokeColor=none;fillColor=none;align=left;verticalAlign=top;whiteSpace=wrap;rounded=0;" vertex="1" parent="1">
          <mxGeometry x="-800" y="220" width="70" height="90" as="geometry" />
        </mxCell>
        <mxCell id="QfKloYm33SwB33vJ2Fxd-18" value="texte&lt;br&gt;" style="text;html=1;strokeColor=none;fillColor=none;align=left;verticalAlign=top;whiteSpace=wrap;rounded=0;" vertex="1" parent="1">
          <mxGeometry x="-690" y="220" width="90" height="90" as="geometry" />
        </mxCell>
        <mxCell id="QfKloYm33SwB33vJ2Fxd-19" value="&lt;div style=&quot;box-sizing: border-box ; width: 100% ; padding: 2px&quot;&gt;&lt;br&gt;&lt;/div&gt;" style="verticalAlign=top;align=center;overflow=fill;html=1;rounded=0;shadow=0;comic=0;labelBackgroundColor=none;strokeColor=#000000;strokeWidth=1;fillColor=#ffffff;fontFamily=Verdana;fontSize=12;fontColor=#000000;" vertex="1" parent="1">
          <mxGeometry x="-220" y="200" width="200" height="140" as="geometry" />
        </mxCell>
        <mxCell id="QfKloYm33SwB33vJ2Fxd-20" value="résultats" style="rounded=0;whiteSpace=wrap;html=1;" vertex="1" parent="1">
          <mxGeometry x="-220" y="200" width="200" height="20" as="geometry" />
        </mxCell>
        <mxCell id="QfKloYm33SwB33vJ2Fxd-21" value="Elève&amp;nbsp;&lt;br&gt;(Date et heure Début jeu)&lt;br&gt;Temps&lt;br&gt;nb_OK&lt;br&gt;nb_ Total&lt;br&gt;" style="text;html=1;strokeColor=none;fillColor=none;align=left;verticalAlign=top;whiteSpace=wrap;rounded=0;" vertex="1" parent="1">
          <mxGeometry x="-220" y="220" width="80" height="120" as="geometry" />
        </mxCell>
        <mxCell id="QfKloYm33SwB33vJ2Fxd-22" value="texte&lt;br&gt;date&lt;br&gt;&lt;br&gt;decimal&lt;br&gt;decimal&lt;br&gt;decimal" style="text;html=1;strokeColor=none;fillColor=none;align=left;verticalAlign=top;whiteSpace=wrap;rounded=0;" vertex="1" parent="1">
          <mxGeometry x="-110" y="220" width="90" height="120" as="geometry" />
        </mxCell>
        <mxCell id="QfKloYm33SwB33vJ2Fxd-28" value="&lt;div style=&quot;box-sizing: border-box ; width: 100% ; padding: 2px&quot;&gt;&lt;br&gt;&lt;/div&gt;" style="verticalAlign=top;align=center;overflow=fill;html=1;rounded=0;shadow=0;comic=0;labelBackgroundColor=none;strokeColor=#000000;strokeWidth=1;fillColor=#ffffff;fontFamily=Verdana;fontSize=12;fontColor=#000000;" vertex="1" parent="1">
          <mxGeometry x="-490" y="200" width="150" height="110" as="geometry" />
        </mxCell>
        <mxCell id="QfKloYm33SwB33vJ2Fxd-29" value="contient&amp;nbsp;" style="rounded=0;whiteSpace=wrap;html=1;" vertex="1" parent="1">
          <mxGeometry x="-490" y="200" width="150" height="20" as="geometry" />
        </mxCell>
        <mxCell id="QfKloYm33SwB33vJ2Fxd-42" style="edgeStyle=orthogonalEdgeStyle;rounded=0;orthogonalLoop=1;jettySize=auto;html=1;entryX=0.008;entryY=0.569;entryDx=0;entryDy=0;entryPerimeter=0;" edge="1" parent="1">
          <mxGeometry relative="1" as="geometry">
            <mxPoint x="-600" y="255.83000000000004" as="sourcePoint" />
            <mxPoint x="-488.79999999999995" y="253.41999999999996" as="targetPoint" />
            <Array as="points">
              <mxPoint x="-543.8" y="255.61" />
              <mxPoint x="-487.8" y="256.61" />
              <mxPoint x="-487.8" y="253.61" />
            </Array>
          </mxGeometry>
        </mxCell>
        <mxCell id="QfKloYm33SwB33vJ2Fxd-46" value="1,n" style="edgeLabel;html=1;align=center;verticalAlign=middle;resizable=0;points=[];" vertex="1" connectable="0" parent="QfKloYm33SwB33vJ2Fxd-42">
          <mxGeometry x="-0.7346" y="-1" relative="1" as="geometry">
            <mxPoint x="34" y="-2" as="offset" />
          </mxGeometry>
        </mxCell>
        <mxCell id="QfKloYm33SwB33vJ2Fxd-43" style="edgeStyle=orthogonalEdgeStyle;rounded=0;orthogonalLoop=1;jettySize=auto;html=1;entryX=-0.02;entryY=0.324;entryDx=0;entryDy=0;entryPerimeter=0;" edge="1" parent="1" source="QfKloYm33SwB33vJ2Fxd-28" target="QfKloYm33SwB33vJ2Fxd-21">
          <mxGeometry relative="1" as="geometry">
            <Array as="points">
              <mxPoint x="-300" y="259" />
              <mxPoint x="-300" y="259" />
            </Array>
          </mxGeometry>
        </mxCell>
        <mxCell id="QfKloYm33SwB33vJ2Fxd-50" value="1,1" style="edgeLabel;html=1;align=center;verticalAlign=middle;resizable=0;points=[];" vertex="1" connectable="0" parent="1">
          <mxGeometry x="-280.00352230151367" y="264.9955507386605" as="geometry">
            <mxPoint x="-8" y="-4" as="offset" />
          </mxGeometry>
        </mxCell>
      </root>
    </mxGraphModel>
  </diagram>
</mxfile>
